<mxfile host="Electron" agent="Mozilla/5.0 (Windows NT 10.0; Win64; x64) AppleWebKit/537.36 (KHTML, like Gecko) draw.io/26.0.3 Chrome/130.0.6723.137 Electron/33.2.1 Safari/537.36" version="26.0.3">
  <diagram name="第 1 页" id="gec1_e4UBGqdUcK7BVIc">
    <mxGraphModel dx="1934" dy="1338" grid="0" gridSize="10" guides="1" tooltips="1" connect="1" arrows="1" fold="1" page="0" pageScale="1" pageWidth="1000" pageHeight="1000" math="0" shadow="0">
      <root>
        <mxCell id="0" />
        <mxCell id="1" parent="0" />
        <mxCell id="_9OoPlu7icydqk32kHqf-34" value="" style="rounded=1;whiteSpace=wrap;html=1;" vertex="1" parent="1">
          <mxGeometry x="57" y="1052" width="978" height="513" as="geometry" />
        </mxCell>
        <mxCell id="_9OoPlu7icydqk32kHqf-38" value="" style="rounded=1;whiteSpace=wrap;html=1;" vertex="1" parent="1">
          <mxGeometry x="113" y="1077.5" width="155" height="177" as="geometry" />
        </mxCell>
        <mxCell id="_9OoPlu7icydqk32kHqf-1" value="" style="rounded=1;whiteSpace=wrap;html=1;" vertex="1" parent="1">
          <mxGeometry x="-247" y="-19" width="867" height="472" as="geometry" />
        </mxCell>
        <mxCell id="_9OoPlu7icydqk32kHqf-5" value="" style="shape=stencil(lVjZctswDPwav2JAgudzmv5HZuLUnrpxxnGvvy9UDRURtDf2m2wtSRy7AKiNPLzvnt62G8/v59Px+/b3/vm828iXjff71932tD/r00YeN/Lwcjxtv52OP1+f599vTxNyevpx/DXt8GdeVwvVMq3y/Hf+x5Pz///4OuMP+9c13pOIwXO5ji+BnMX7fB2fI4Vk8Bnsn0o7vuGFkgC8kOvxgYoDeCbxHT6T4+v4mClzh3dMNYEFgULuFyQKFSxgciZCQgWkLGhIexfEUQI5CGqxWVApgyBJIumdDpkKyJoaYEyKCYbVJ/L9ghQoBrCAm4tL3jwlYJKLlHofcqUCTHKuvW4LSiQBJ1SrhFKJkRSsB9U17V2mqiVSVa4DInmrnFopIocby1b4DOx3jcYrfI0I7/r9HTMxMIgpp+EAECCmIIMDgENsS4XiA5CyWjvsj0i9eLfgC2UgZMVXixcQUCY/4BnuH42/GdZebtFe4RNMsKkSEx7E37Xd1vbA/euAr4Cg2umyjY8H/vr2doVH/i6dbsUHBvxUe6LFCxCws2Va8QniTYWb9AIF78OdgiyDwygBSrhBMKiTKaEHwUcsyMEeDwvEKMgCBcbR4gP01zuLd9Ce+/ChpX/VMQoQWBrs15IH+nxuHXTpYBlX9GF40nFQEOOClUAumNK1tbhlwcLyyxoLdj7TiRAOErVNMsuoEuGELKE1lWUYSrAt6XAlvdNSYGMNYk0ShrNN0CD2RNJag4gRfSsMi/QjRcAMHd8sVamgqVeF2B8QYdqSt2nzsLKk3I5fHGgbXLt2mBwwvBYoj83wxPBaM16bGLaC8VqGK+9HYbtx/2qvWYyvfdpZLB76q+m39qDRaWoUweDhtM5DrWYosgsLHJyOR4tcGx9v9Ni1kN0YUQd7zZgxfycjfBsfb2TcJx8CPsXrw8dXh5f94TB/tFi/t18p9K/5C4c8/gM=);lineShape=1;strokeColor=default;" vertex="1" parent="1">
          <mxGeometry x="114.0370000509738" y="49.83395923704734" width="55.324959555004625" height="53.457288405661984" as="geometry" />
        </mxCell>
        <mxCell id="_9OoPlu7icydqk32kHqf-6" value="" style="shape=stencil(rVfZbttADPwavRJ7H89p+h8B4tRCXTtw3OvvS0FYVeR2xwnQN1meWV6zJDX5h7fj0+thcubtdr18Pfycn2/HyX+anJvPx8N1vvHT5B8n//ByuR6+XC/fz8/r79enBbk8fbv8WE74tfIsWbOQnPm9vjBk1hefV/hpPu/gkWxW8OjHcGspWIWvboznv4sXeEsOuOMd1aTwAeBDoijDLeTtGJ8M+SLPL2TCmJAdlSgI7KKPY0LhCGSGQqEEXKrskhOEWKgUQKhkZE5TJYcsVPIyqXmzOSKkIAkOlpkJRVlIlEGWmFBlHQou9EKokpDIV0yQyqh8NTAhy8LVSB67FGSWaiGHLVhZuCVvQHx8Xq4dAVW6UCjaJYu0VJpydkFb0ACYoMTH+q0ZEDJVmSUunEXSyLoFsDQsssAuySyx+CKysPWInbwzthCVBUMOZ6nKO71cUawlFzUBulRbiJtLtgl+KG8VQ2xtYXiBlIXtiH/PBrONmq1ygTJuG1obW+cZBqH0HZoeh2lSdzS3WzsshCLUNmKGpZZB7/LwvxhGN46CxxwPoSxNZL4koA/kjpAcGVA6HqROyinkNvhGk1p1S1/aLvHOVcBbKh/aNTyOoV9mltn+kWWJ8QndCL2LeU8OOGTaNNidn4FYjW5LnCE013nqS/9dhcuPaQNzw6c7eCMr5hy8O12/sHhV6vHhHl4tkwb2oy7eDAdPl84AZ21XLdywOzGYNtvfpzXcUu7C+eHvJ8bLfDqtXyj7//UnCb9aP2f84x8=);lineShape=1;strokeColor=default;" vertex="1" parent="1">
          <mxGeometry x="117.83811363620907" y="104.23398365110984" width="50.94766839332215" height="3.407978482925728" as="geometry" />
        </mxCell>
        <mxCell id="_9OoPlu7icydqk32kHqf-7" value="" style="shape=stencil(lVjbchoxDP0aXjXyXX5O0//ITEhhSkOG0NvfV1vqZS2zh+YNbB3rdmTJuwkP77unt+3G8/v5dPy6/bl/Pu824dPG+/3rbnvan/XXJjxuwsPL8bT9cjp+f32+/H97miSnX9+OP6YTfl1wnthNIM+/LwtMvvxd+HwRP+xfF+KREnfingKvi0s7rIkncuB0F4ilkxeSDOSFSn++nuAAQO3PoQcUKmkdEJjEOOxJBAAKpdgDhCqKaCLfZyBkYr8OSMHmIAaqYR2QHYU+qsm1uN0GyADQQIM0l0A5d4AcKToAKNYH1ZlA4oSJew3FUQaJEyV2T40SyQGTJA4aMqUKALlRfwZUyghQrQYJ5AGgDj5IoRgBIFLpyVcdJcClWoh7H/QIAVyqlWrPVl1BbHXMg4pKHjlRW70sABHQVbclWEAGNTptDyYJNulfnhaACuhateb7RCzisIZIMqhAXuvdmgcnMICH1BVQEUoOSRaQ7gDGVCOCl3a9L9l0xwdDcLnntClSXSmoIsR2iOvKaqplAKAoVQqjBkSmesOkgvltwyqYrnXwoeJGfbOqA0q12jSU0J0w5QFQsIY4mIT6Yh3u4wmANMxd8P8BYdSAnBY7AE1OI36XG2FNiBsfBujIZkxKjcBrXauaKHl89bGdErXNIbrqtgUEeH9rb4+90zpPeDQMePK90zqxoMFyOq/XoOMG6kFluJiK6gRhLanV/DwyaY0C8umAZHpQTsRgZMrZ0jvVNgjenkSHEk2eItCgc6fp1DHCy1Un29S3IB2OC8h0SJbevsLRVbcNvX2Ag6Vuc2+SvkISAOgLw/UmuQjrwbk27swFBF3IlE2eiUFMveWRPpmA+dyGtdn6O+KOjTjyldvweH1+okIeug5TBrcj21Rxe3as2Z6NeIDGmD6O7xS2D8M5VCvipRpxlFU3ugo5NtrOwHZnh9P5ObYiLjariDMf/AZxV1x/XD93vOwPh8vXkuW+/TyiS5dPK+HxDw==);lineShape=1;strokeColor=default;" vertex="1" parent="1">
          <mxGeometry x="158.63496339919175" y="38.63505656856955" width="50.28701177462972" height="79.73773946894471" as="geometry" />
        </mxCell>
        <mxCell id="_9OoPlu7icydqk32kHqf-8" value="" style="shape=stencil(rVbLkhoxDPyauapsy7bs82bzH1u1bKBCYIslr7+PJmRgpGGaS26D6bb1bGngp4/ty/tmSOHjfDp+3fzcvZ63A38aUtodtpvT7qxfAz8P/PR2PG2+nI7fD6+X3+8vI3L8+nb8Md7w68KL1NNISuH3v4NAuf09+XzB73eHGb5RzQavcF6HRyEpDh/COl7vbxZfqQJ8TiTR2t8ppnVCaRSbIXCmUNcJwpRthIq6ENcJXV+wJkkk6ZAgYglMQQChE9sgSaEKkqYEqZagVwCnldBtlBqTgDyPBOtDa8QgD6NJtpB6olqw0zYPvVJCTrfFC1pcyKQ2FcKtF3C1diG2Xo9uodqoJM4JoY4SoT4GS8iYUKg5ryP2oZDYF1qlgnxQgqsNFRGUuUrBEkSoIZPUANcQmQrOg2tqScSo5dQA90Kkinu0VP8C0kkthLjw4UGPVtfUWo8ZtxzbPCRKSItv1TxLNVSmfqeYElambBOh1RJxk/ZFk0asrqkvWg6ZJNMAmRH6/yRoJTih0cwhdS1CxQ25RB1POTdSss5hIGU6RrOtPhYKINM6p5sVJo44rFO7XPE8dfl9iyaJuHqQKCAPpgjO8AzsiV6U8vVkBZ9s8+QwFdZdfPATVAPaIZ7dmlGgDIdpa5nFH0neopWTTDq+hrf3J4bDMHhFHW8A8Q++4GKFghq8AEe1B/RM9JM2xmmzXME7cXyw1z7eg/XjtkS/7fb7yw4+/98v3Xp0Wdj5+Q8=);lineShape=1;strokeColor=default;" vertex="1" parent="1">
          <mxGeometry x="171.41662036729122" y="108.6463204475242" width="23.93471248215519" height="3.6332251380929392" as="geometry" />
        </mxCell>
        <mxCell id="_9OoPlu7icydqk32kHqf-9" value="" style="shape=stencil(lZfbbtswDIafxreEKIo6XHfdexRougTLkiLNTm8/eobTiEr+oneJ/ZHmWdQkD2/bp9fNFMPb+XT8vvm9ez5vJ/kyxbg7bDen3dl+TfI4ycPL8bT5djr+PDwv/1+fZnL+9eP4a9bwZ5FrlWqZpWL4uzyJlPX/g68Lv98drnklZce3Anim0usXUsDXQho6PpEw4IW455UE6C/mb+v4TDUBXml+d8XX1cDbPJPUjmemCBzImXIfIFYqSCCQ5j4DkUK7L6CRkvQp4DVoNwWSpbSPkT1RYJKYgPZJSFTkvoAVQeqzZmEoIA08lF2xQgFONyp9kKpSrSBIviyscBvQH4n7rLVGAvrGtCXPZ1CnTFk830DOrMh6fzkECkAgDA432MhWdYMDFdRE8AYZryDDZu0QUAYJuHh34SsVkGDj1fMC+cieD9Df5OwvVCKMP3teQctYy1bPJ1hAqoN+WKB10I860hpAhvgA/ZFi9XwC8Ykk0fMVjRSKQ8NEyIeBV1APvEbjuv7RxCIZ+wvqD309fNzAWQeDYEHLwGfYkBw9j07i4B2whDXYAGFIMDpkzJ7keQYJ/iyfiN3AsgiDAVTXQ/dywiRKgGfxm1bJ6ydvVyj7EZEVlrQd69J/QQXO0MSU+i+kQA2YpPbabX+NEhJofqzPgxJU9exinzaLWwNOl7C6eMkb9Lkk3weZIphbtjA6/QmWaY3rGLlakEEb2MLrFliGc7cNgyXAtreFXcTxaB+dj9HgeDSG5i739gTg7zyWi+MZ2WNjOXr70YWjrZvnO4/acp6a3v6C9Te34K8lfrvtw7CpXDJ49wPqeHQfmB3oHY44Yc0fHBE2gPHJ60+Yd4M04k39szfQD3n78X7dfdnt98tt+fq9vx7bo+VqLY//AA==);lineShape=1;strokeColor=default;" vertex="1" parent="1">
          <mxGeometry x="121.57286576641354" y="50.61990883490671" width="47.80804971960333" height="43.7795885869989" as="geometry" />
        </mxCell>
        <mxCell id="_9OoPlu7icydqk32kHqf-10" value="" style="shape=stencil(nVjbUlsxDPyavGpsy9dn2v4HM4SSKSVMoLe/r9yMw5F8sgf6FoI3tqSVtNKOb14ebp/3u+BeXk/Hb/tfh7vXhx1/2oVweHrYnw6v8mnHn3d8c3887b+ejj+e7s5/P9/2k/3T9+PP/gu/z7hGOXRQcH/OXzgK8d8XX87HHw9Pi+M+UszqvKfowflC2avzTD6A841qVecTxXb9fAhUnTpf4XtCJqft9Z4KAjTiogGJHF8HMFMxgEoBmMDioqgA4tPsrgOihEj7KESqGQACcdOACqMcebz4EjXxEgZkbTQn4gQBlTWgkasQ0HSgxaoCmNQB+oaYyYM4xDgBGkVkdCbWuZACJUCNWKkZgLAbGJ2YnKZGEnoDt6ZiyZclP4GXsrBVPynHQZZ1gOSDTuhciIENJVLWNxThL3hSqTYORZK8XAdUb20oaTxyHSCR1m4thRK6QUzU5CttJO06oFmAPDKDJ7VAXhtdmSJ4Uosjvy6ARAGQr2Wb0zUPR68DKnkd6VopAfIJoOobmiOHbGiDCBeApwTcKgCTceK3BtgqgGhuiOMnrgK0W1uiAopxB+iME0dXkA/eiVM0N+Q3MnZTSRZQMMB5C0AZ1MroHwtAQ4HIFHkCoEBEe8PCD+sIJg7TFcCxwp1WJgAoNMLONvm1Iqud1QI9EBhgOnUPNco5N8i2ACRkgyRMswDUtCRharQA3ig0MwDdkIbX3wsoQ7K990nVqo0to9soXEu3oji0FS7BwLWp9m1QY+oQW+SrK1yC9M62j24lULIy8R05WuccRWVgUqJbhcZTmHMUccNRmsgEi6VbuQGW4/8AlA+1iBXARhNyU4fYaHOOsonDRiN1UwZ5LAbc1NuFS+AGkUxmshS5gcagOs1NXdAAt4pAKkbQpJFT6wC2XOrfgCpQxa1GlPnxzTWtawBdWCI1na38FumKClNhq+K6OAbUEHVubwgwRbOM1MYGBwfePDU5GSHgVJPIT0MKEscyuHlNjT4G4dkv6ifJoJU2ZnCdQPJI1Kj7lG8WGwEmEGdbZmKDXpKJO2ijNwbeDtCR3hipBWDcujG0c7RtdGMtIIA0Lx4QgK1b+2oD0Ju9LWR9eYI2TNUuHgLO6ZCs+vYV6p8w1da+YgL09sXGwWMv+WnbUkexvTKjUDHshnNZtQKOKYDkEQ7o11xE7OpxN1j8tqKMoOJN45WDlLt0pcUCFPje2S7lYI75+dfh+tMuJvAAHew+ycHVZCRvPYPUXbKCEx/PQ4IvjgNTi+2tbrSRaxRj60ikiMgnexxJtI9twTePy4e3hfv94fHxvK9f/t8u6OWr83KfP/8F);lineShape=1;strokeColor=default;" vertex="1" parent="1">
          <mxGeometry x="126.63453524527631" y="109.83561428047392" width="11.52714408868951" height="167.7268510272561" as="geometry" />
        </mxCell>
        <mxCell id="_9OoPlu7icydqk32kHqf-11" value="" style="shape=stencil(lVnJbhsxDP0aXwntyzlN/yNAnMZoGgdJuv19qRpChpTy5Ll54RuJ+yPn4G/eHu9ejgdn3t5fz9+Pv0/3748H/+Xg3On58fh6eudPB3978DcP59fjt9fzz+f7y/eXuybZPv04/2pP+HPBZUvBNZQzfy+/GPL+/w9fL/JPp+etvCNXhLwll4G8JS/lHVXw/JTJGCEfKSUgz8d7IV+7QlP5GKhaeX9PBQBCoKQULhTN5wCfKAapsScLVPCejFTBZUoWACI56TNvKQMnBE8xSgBbFegQC9kqAYUq0IHdXOQJwUI/F44LeQIbOiJAJatOSN2VU0B1FLIEVHJA6cqBIAGRkyMAQKCQJMBDszIgq+COlAsEFBmtMVNdAKSVkiG7AEilk6NYMUDmQ+KUirsAmdy+EyolkKIjoIXjQmkFCOR26ZATpX2ASmbXlThDwq4TioeVcgLg4AMZNwHknX7gpPW7dKi218JrAa5X22sBvmfIZ4AqU7RGMqjMJApFAyoqAoW8rN78CGRWa4zuiZUzCLk690jYAJDWkYuEulOlDHI0RN0gGIC05v6R4gAAPYtbmpWFaWOHKYLbrGq87QighOVOnQYACD9reqXbAApiS+TtYFYQTInM4IYIqgaHwfB81LFYgTwo4FHspV6qNwAHAOwEN6hgkZ8NlcFrFsQqR5IfdEAtLoSJ11C1Z54wAlAdi26iQwBXYp4wBgaqAcxEvNGAjHRgHj1cqSCOaHo6bpMB+cH3UL4y3Vp0yyutMpqZdh4TFNzJum7FK7UuepppZkXjhi5KC78Ns0ALDMR9+vC1jTxU6XfKM30Mymm4lUSmLaoA4G7FfLOqK+F+2Pim1QDUcRtAnYB7+gSAWcMEgHnJCFgwnwkAc6sJALO3CQDzwwkAM9ARsOC4EwBm0RMA5ukTAJ4ERsBi1pgA8DTTALIkLealMR8WExn/HWSKLma+BpBVaTFVMkCVmcXcygCjRmk8GSerh/W4CD7uHLI1tOkeVI2YdC9p+wNQBELpNtluKBCT4dIurdR2IMBKbbWltiwVVj6mb2pYb3scxMb08m2xKBoGjbaJQqy+947tqgvxTztQgAKJEt9Iea2t69AQkPReib2CNLCar7JFgQY+aMaA95nMkpQL8L60PV9aCO9jWT4XJY8qpGf7ZCWPakXb+zktD0I0uK7eh7wBXYeTcNDXICJsei3cyKNNZtSVaCFfx304uk/yOt6wvinpCQzbk9uR089H/spGLzxwPOze/y/l+cPHy4aH09PT5V3F9n/9coJ/urzY8Lf/AA==);lineShape=1;strokeColor=default;" vertex="1" parent="1">
          <mxGeometry x="206.36670627557305" y="115.42948948169965" width="3.0916919819524082" height="172.08209673267447" as="geometry" />
        </mxCell>
        <mxCell id="_9OoPlu7icydqk32kHqf-12" value="" style="shape=stencil(lVfZkhoxDPwaXlWy5UN+3mz+Y6uWDVQIbLHk+vtoMjVkLEOneBtMy9bRassbefrYvbxvN5E/LufT1+3P/etlt5FPmxj3x932vL/Y10aeN/L0djpvv5xP34+v8+/3lwk5fX07/Zh2+DXbtUaaJ6vIv+eVSFz+Lnye8Yf9cY2vVEqHz5QjwAsF7fCNIt/Ha6bWOnwQiu2+Qa3UeoeCUkz3DYpSjX3EiVq+b5CVWh+CCAnIUbKc9gZJKIGgE/ugc6Io9w3MAU6dQUlUQdCxkPRlrokSSGtkCn2WNFICLoXks6RKBTDDqtTXrRleQaE9UY26AVSh+hQZPldQZmoDXgEtEpXen8BMDKpspGF/QAMOWSMOAVdQskAcPD6B/fmGPww4dI1uVbAMEmQMEo/H+xenFJUyIESg3Dw+BpTPWnt8gflPFNjjFfiTl/5Y7w/yU6iI9z8gpaNchvyA/ZVCGvIP8qMDH6y+EM/O/wb5X70ETfxEQk0y7F9hA3PzeFRfofpYA5sADgEoOCDcCCCDAjPloSERIXgQCLvaQMF4UESFDfMovi7pvt4AFQuWeAZpWET1toHlo5e4KvAE44Tr+SKYE+KbMptsg6ZPRorepWkFXEs5+CpLhPdYCb6Pjblo5Kq8VOlK7EIZNNo0QvUnhLBowe3Ot9mhHw4qvFpVvbQn2AgtLBfX1SE4NBpee2lkUjCrNCuROjxSOhtio8dHNCTb9BYdngGJWl4m1hUexVuWkXiFR/5XL+28NNJtvHoGMeRDGyZkhnyYdDA7fEP7t+XvFR+Q8PIwq5iwYIceewX9F28f/55cb/vDYX6xrf/3TzRbmp938vwH);lineShape=1;strokeColor=default;" vertex="1" parent="1">
          <mxGeometry x="127.53156086358013" y="281.0003774398192" width="13.870748836954135" height="36.86810651447195" as="geometry" />
        </mxCell>
        <mxCell id="_9OoPlu7icydqk32kHqf-13" value="" style="shape=stencil(rVfbjloxDPwaXi07zvV5u/2PlZYtqBRWLL39fX2KAsSHM6hS3w7Bk/gyGTsrffrYvLyvV4E/TsfD1/XP7etps9JPqxC2+836uD3Z10qfV/r0djiuvxwP3/ev59/vL5Pl9PXt8GPa4dcZJ5TaBAr8+7wQKOe/C5/P5rvt/sbc/g2DuSjFtmyv1OK4fSCOy/aZWAZ7lX7iXftGebSP5iHwRxJxGgApUiwgYNuPB0DOlBRELFRGl0qmXJcBUaiOgBqJwQkpkJQRUPvK/aRaDh2gUUsA0DoJOqAxFVCGkiiNvGhCDHhUWqfNDSDIMqAGCs27FEDQlsSWfJYKcKkWqi5LmQKog3mso0vmpIBKt0YycqkIvD0GUPUABUEbIGUPKCCtBigOEOB9MEBz9FZKOOg2ZqlYZdCVngMyKWDrBHBZKpCtU9DuhEoVx+BEwPj74AR1XGISoHsTNeIMgApXexJvXIJKaeyPPuiC6F29tlpakfIZII03zgoHgzbAmCWjBkxr9bpk5IsMAdVlKZDiOrADmHiioBuF5AEKZKbNlM8ACbtU2MeA5N4AdZalB7rUZnWIIAZhJnY+pUc3qDmfCgUMqDO6QvY13+SmHoNPiK5BcB8O/hNg1netZzXU5CpxHQGpr9wHpBmg4CYXvDBNjAcxXJN4mfiuxV+cBcQfgbgxTRvqAQm0xSx+Cm1Yv21imqdJQJqizFxSYjTnWiMfAVaaCqTM5srg1DVBOZboR6ysUCyrV4EkfeV+zP6GRiYFdQ5dtS6jfYNKKX7yltrb8F17ng1LkBTcZ+ZLeigCVZ0JWILjJ/u2oF0yl8z9q6qCVNokOzpjQxvcXcdMch+AFsyTOnPUArnT8GrOgGbsX3hYHYTE747agPXS4Mwr8F367HpNZAbi9o+P34fm9nF9Z79td7vzM/32f/8ut6Xzm16f/wA=);lineShape=1;strokeColor=default;" vertex="1" parent="1">
          <mxGeometry x="127.40849328048262" y="319.41160774162495" width="69.87071244532626" height="11.481848437400458" as="geometry" />
        </mxCell>
        <mxCell id="_9OoPlu7icydqk32kHqf-14" value="" style="shape=stencil(lVjbchoxDP2afdXIlq/PafofmQkpTClkCL39fbXdMWB5OUzelt0jW5ejG5M8fWxf3jeT54/z6fh983v3et5O8mXyfnfYbk67sz5N8jzJ09vxtPl2Ov48vC6/319m5Pz04/hrPuHPIlccpThLef67vGGK+f+Lrwt+vzvc4hO51OGFogB8bcc1fKZS7uOroxo6vPOUExAIFHwvUIiBBTW3z01ATUgBCBTKRqBSjvcFHDMx905KFJERlWp/RRBsdaEinUB0xEggk+/9GjOFCv0qrhNIgv3K9oaUqQKVijQmXKjhSfx9gSwkhktqFSBfYnK9l4pvVq0KhEDJCKiXAF2FmxObQNUbEDcK1Z6uNTbGr9/QiHPBK1eACZotvQU3bFzXyEZhvgAo5Mg5i88gCFpPBnwABmjMjIPUZYCoQ64pPgIW6fnR4lHmsC1gmkoJRZg8W7xAf9Zi8Q6c723mz3jgTy1uyeI98I/m/aBPAHkfBkLnpuEqPrbbb/zvwfmKH+KVgT8j8cA3B/gTGltu8KgDyuD/SgXES1b0QXz2tsHOeFCCHMmAL5D/qQ72wvy18aqtqt7LR2NvoQT0Z9uOZz7A+hCG/Mrw/DrkbwD6O8rO4hF/Po3XUcAkmKYoIJy/tNGLAMMIhIFCJbbevJ4yWqF6ThRuR6x3YiWFad0RFpXreRcBhlVUNS592FKCZUUHzWQEtBMDAW3UwYxQubWedQGxo2lkKmhwjLY1PZrqguWqzo3whqG460DiQbOfx+s+m7X+oW6sbuX+Bp1g0ACvC4KhhlMlETVkSFDIbt1YzMgVKQIfzTOiGd8pAhflNLiIHDBY8aYAOEhUxZuYqUEo11Irb1c8g/qi9rLd6NC2oviQDB7qk+3AwnAIz1r+2eDRHpEreasPml9ztWmpeFyKotX/Ad+c1QftEJ/eqB/i9eG6vr/t9vtl+7/9btd9fbX8VSDP/wA=);lineShape=1;strokeColor=default;" vertex="1" parent="1">
          <mxGeometry x="199.24494892650182" y="295.4106705403667" width="21.086588821901387" height="38.368811691107794" as="geometry" />
        </mxCell>
        <mxCell id="_9OoPlu7icydqk32kHqf-15" value="" style="shape=stencil(lVjJctpAEP0arl09e8/Zcf7DVcaBCgEXJtvfpxWQzPSgJ7gJ8d5M74tW4elj8/K+Xnn+OB0P39e/t6+nzSp8WXm/3W/Wx+1Jn1bheRWe3g7H9bfj4ef+9fz7/WVADk8/Dr+GE/6ceYEqDyTPf88vPHn3/8XXM3y33V/BI3Fo4HkB7lq4Ywoe4muLjyTlgfM9kwB5VNvc4guViPASG3xIFCvCl9TgYxg1msHnVt/ExEDfHp8pM5SntO7y5ATZ8+LNCZ/HE2bwRt/iKAF5ElXf4hMxiIdC2ZwvUB4NLxNAEoiBg12g0HpY1KIZEAq5NoQqkwcqaEJxa9PqSYAPVOnL3xMhQsIQk20O1zT65bbX1G2tlWomB8yakvWzioT8kAt5tkqjQqF+Ta2VRGBmSrEiSaQE/FALpTYXSoGOq0Lc6lAyVWBWJcRqCYIJVbobQPDVStF1OqAbapegajeQoEqoXcahGxxzZyYhwUqIMZOqhZXIwRIqiD4leBMb2naQSGITQgkJpJwSfEfIIL41+sRbQgTxrQTjaiUwaCVKcN5aCfUGzflaLAEV4xsEGYWcFaktrhp9sqB0RwgoNMqYYFcEqINQMLGUcbSKddyQoziDvFiRLlPKbHh3OiRMqF3GMepZN3MUdbnhCuMIVQsTSpejaBJTQmjNpPG9UMpCl3KIMDSQtlNLgX10ULF19dC0wA15Gh6vGq+A6NNpjdsM+uwZs526ddyVL+eGAVMGBtcAgo4bHK1MKMB1xDbleCgMaMaKNl51ekBTrk5x2eigrkbjBtVWIh3iGG8xZuhzcP6ZhuarGpCRAmMNmvAeKtxZNE+VcwYf2/MXxnoeh/I714Yej9cSHvv3nWvP1I3vXKvU+2bNw2sbj+XwzrWwK48La2d3/sJay2N03bc162GP7OQ8tshJGsqPBAOOfbYTJI+Vfi70i4EHIIyjmA0c9UpnVyNcDD0F9xDclHMsTLCVFqsabJJgQ3arPnZTsIMQDoIHP/sswvXh8wvT23a3O3+guv7ffpHSV+evWeH5Hw==);lineShape=1;strokeColor=default;" vertex="1" parent="1">
          <mxGeometry x="141.65659517296763" y="322.56589461861245" width="35.446741852604646" height="28.70873113096286" as="geometry" />
        </mxCell>
        <mxCell id="_9OoPlu7icydqk32kHqf-16" value="" style="shape=stencil(lVjbUttADP2avGq02pv2mdL/YIZQMqWEAXr7+8rNbIiEfRjeHOdorcvRkexdvnq5v3na74RfXp+P3/e/D7ev97v8ZSdyeLzfPx9e7WqXr3f56u74vP/2fPz5eHv6/XSzIJerH8dfywl/TnaZSlqMhP/OG03/3/h6gj8cHi/glVpx8MTEYxuvxNXj7U7fxttxvTkD6SQVGGQa7ANo8866QafsDYoZ5G0DSVTEGdRGClySRuKT1Bpx2zbIibo36BVmKSsVn1YVyrJtUGpMq3aqwKWaKXdnMBKsQ2PK3qUhpKAOlpPkgx55JnrVoPP0+OIJiKvdYhjegCmBoLvOEM9Z4lnKdXYnStkXjklBDFqoeYM6KAOXVKmqZ2udeVs1sJywp7cMUsCl0SL5hCqom+GHZ4b1B1CAYf3mz2dqGK8S8An5r5F4PDOwhVeN5yN/xvvzOyix4buE/FQgL4Yf7/KPBI85VtgkG1DIHhACLtTBAwzf/PkmHiihY+bvLHewj60ATQMe9YzhU4140PZGoNBjjSoiUI/+11mRrQbQFvCM8c2fbyML+d9mut8I8UEDa2xITTBe8ecznH9LPmMDZHS+zn69aEhc354iHjekRHxF/hifU8gPEvWlX0bIv6CFYq0hBQcQOr5QwQ32ObxNCK9AWTAjUmRc0bkvrE8l0+iw4WToks29MLttw0Gqa5O1eJe0zVm7NbvZV3lZJ8ATeom0XoiO948eDAbcA5vpiA/6gipbSxRLfISgNU2m9F8GAdJUSpxOliYFBss2HXYinQv0+vY7YjvbElVBXhc5DNtvgsts0rjMtgQnWiokXpFqgpJhbyHNG5Q097B1bswqnTvOPEJlmNQ8S4zAJUHiO4uF1EEAHPEdjhzbgCIc7Zjv9K5BQeXYmRUSiKN6YbXjuF5mWCmOL7Ay1X6dCbEhrRLgdFOteDp68Utx0qSpGFssyPF04LtEvRIqqNNj3gVy5pMfDj6E28XbN4q7w8PD6RPH5f/xm4bdOn0Pydf/AA==);lineShape=1;strokeColor=default;" vertex="1" parent="1">
          <mxGeometry x="184.99349107056423" y="334.28116031430636" width="32.6859613186075" height="15.758570899406322" as="geometry" />
        </mxCell>
        <mxCell id="_9OoPlu7icydqk32kHqf-17" value="" style="shape=stencil(lZjZUlsxDIafJrcaL8fbNaXvwQyhZEoJE6DL21du6kMs5fzGdyHoi23t0s7fvD7evex3zry+nY7f978O92+PO/9l59zh+XF/Orzxp52/3fmbh+Np/+10fH++P//9clcl66cfx5/1F36fuVIoxEo58+f8jS1U/L9vvp6Bp8PzJZDJ2w5whnwGQCS/qBMsADwtqT/BUgBALhT7N7hABVwpB3L9Cd5TBI/ORmppiRTCNpAC5dwB0VICJyTblNgA/okSt4GYyIQOyIkyAlz7vQaUpV3yKhByU+IK4BNCkFdi77LAcMGSXSQQl21gSdKXGMjADounkCVQ0AmGjFUA0JKPFJ0CCgA8edPHg+FDDSAM2TJFONZTmCPYFybPcJTyHGFmz7Cr/3yaSLO6soGsmyM4kuYsaI10khGhsuwIiGTSFOBlOhgBnObnNGvIiYRTYNJkNxfpI7c8vSEvnsylxoFQ1aHtKYFIXV+3ytt24pa87zNybirbku8VmtmIIDepNJCXpuEtg/X3z54c1P/ipbyF9g1Bymd4f1GmuQ57qM8k7pNaGd6SF/7AGpuSXwP7c/cpgRZoX/Ferp8R+mdQ5dOB8qnsVSsPtK/wh1o84XuFv3E8JhxfRb7XwPuLeOGGJEJ76XhEpVnFOzeKOF5EPuF4TNA/Rb7ieMT6EfmQ4wX7j0i4LG+wfafkVQUYyKsSM5BXNWwgr6vkCFCFeASoWj8CVDsxAlTHMgB0UzQCVN81AlRrNwJU9zhyJF2ZPKxkugceAarLrgCYp3QfXwGQjPSkkB0cwPQswgAcj9S0w8D/V23OUwpADUid2IThDMxIUQVQSrAkxChPSAb2UDzXilGbL4maBB57kxi1F1rQMM9lUEz/Bael0Krq2sgG+Oi6X+iBRAkcUBcYvd0crCN6Q2LaBuSTKxjch+sdD/8+ur/apxi4u2B5YTJLAd1/ndk/9IP6rtrW9MGP+4Qq3/sc13HgchdzzNpZkAGBeQWwlvzUlayHmw79ZnbSBO6klcq1C8XNFatxZKK9nHILi7c187vFMcAfPlaZD4enp/Mm9PL/cvXJX53Xpv72Lw==);lineShape=1;strokeColor=default;" vertex="1" parent="1">
          <mxGeometry x="24.710790392264016" y="78.59868289566134" width="128.6597689541611" height="5.901488990911503" as="geometry" />
        </mxCell>
        <mxCell id="_9OoPlu7icydqk32kHqf-18" value="" style="shape=stencil(lVjLbhsxDPwaXwnqSemcpv8RIE5t1I0DJ+nj78utoc2K2h03N1vLkcQhRY60C3evh4eX/c7z69vl/H3/6/j4dtiFLzvvj8+H/eX4pr924X4X7p7Ol/23y/n9+fH6/+Vhspx+/Tj/nGb4fcU5SjyBPP+5DjDF8G/g69X8dHxemAeaPi3MAwW3bZ6olM48U/bb5pVK7cwdUy7b9i5RCD1AR3gboO5G1wHUXycAICTSAxJFsEKIFA1DjnzeBkT93EcgSKNhHVDI9SzFhIOQiPsoJA9ZyvOOZ0ChDFjKGtae1hyJQaCFqaYeUCgCpyVSiB1AfPNqHSDk+hVEaUgAUCn1TusUArZUHInZkuYviEMJNpd0igriUBKlntZpCgTIlladwoHjXErjZAbkRsP6CWXiPlt1igRWqHrizAqVKqoBWlH69NYpBG1JWepp1SkKYKlWin2kqxCjFSpJsIAAUqPOLi4ABbDkeOC1llbbNpfIFlAiBJQ+mXQEVYE6HAgdQdVYP/toATDUxbaHBQ9biBQ+uYQfvIZOyMBrhdV1iqz7VCCGljKFGgOK4VXwCnqqh3xFTWvaAFsAg4KvgGy2lFsst3LD5rcCQDmeWE8WUPEKOVkfPPJBD4RYwI38rqYyaSvGdWMEoD66sqV6awXrdG3V8H9prbfiwMMBqqj2jakxl6rN5BtWEJx8KwAUuDi0lAxVbvWta86A2HTyZlvsK5lOgSJdZGjtGgfAkjZyKx4Elu8SrdSdpkAAP6wQYBwKtx0v9EwGdUlKU/8LxYTiIJm8EXG5ia51QLBqQ7APMgRORxxI76wkGuU6j6wDmIK5A80j63I92gtBwmI6ap0zFwJph3YdwFZMhwoDF4LV9zrCgCW9Nply73Ex1muYqRoe63unB7LPJSet1a9nq+3rzkPhGpuGnJMbSr5Zyc8xaKV81ZxtjB2skdzY/jAXkBHc8uXDPIIUHbSng02HrbrgG646Z8wziJMyY2cPcHZT2vHxZXtXYKj82ZZELE+5KZSFOXDVtaeHhTlMMdO6Z6o2zD/1snPTXH98PCI9HU+n6xvU8rt9dNKh64NVuP8L);lineShape=1;strokeColor=default;" vertex="1" parent="1">
          <mxGeometry x="-42.17067167970686" y="41.03138624161079" width="67.24502587449706" height="47.59529456678797" as="geometry" />
        </mxCell>
        <mxCell id="_9OoPlu7icydqk32kHqf-19" value="" style="shape=stencil(lVzZkiS3DfyaeWUQvPksy/+hCK28E17vKlYrH39vwGNWdyWqkjNvcwBsHiASSID9kn/64/Mvv396SfGPH9+//f3Tv15//fH5Jf/lJaXXr58/fX/9oT+95J9f8k+/ffv+6W/fv/359de333//xSTtp398+6eN8O83PQkxmlKK//n/H1Jo9X9/+eub/JfXryf5PM7yJUQqP2D8Gsa8l09BYPwRIpWv+SSfYmiRyQ85y+dQhclPGL+HWKj8efwsIZH90d0uZ/kWEl1vOo9fJLTG9r+f97+0MDKTt389yVcJpd/Lx3Wah3wNmaxXTwfkB7W34zSXfNP5kP2PobazvNpnouOf97O1kKk87GcboZD9jGj/PYZCziuGCfIpZLL/en/P8+8lJHq+ct7/XsOk9pNBvodK59P6WX4GIfdRwjzb29ATpPdFzvszdITB5PN5f0YOmd7fcvY/o6wbeiPfz/d31NDJ/ucgMJ8WOtnPvHb7kO/LQi7lS8hn+x+T2n8N9bzeGUMi+9lxP6esG30pP5d3PeTVQzL7SQtODoUShBl0wRs2axCGSD10QYVJPsHu2PkMZlte41qhhgib2rnRzTCcwiS7mutyyofCCJV8gqJEiagwmUJ3a5jLdK8NKV0pkDXUhq5LFRIz1YHYagrk4BQq0JZUgSy6pXV336tQQkkfUmhrxu9VGOjwNgqKL/FjCrIc0HsV8kK89yrUFTK9V6Ehiu8UrnaJOQFFpQ4Hx+/DOMKOJ4VGHKXiTKqowMxbgUNgSp1/QsPYSxXYjRvDOQF1ZOQCKXZ0p8DWoODRwDQ03CfnMMXtkro2hidqrQ0V2Ekr3uDBFRqBzez8Ul5B950COoG0hrhTmDClSINmm/H5pPUomTNWhQkKNSQCu7brEDcIjQvtXM8KegfpLrUgEBkescqdAizaQmdyRVUBTEO9LY1NOrrKltck7xTS+eDqXPHunQLgtKIePemOF6jm5RbuFGDRNS4gvlOY5xunUJ+ZwpGAHwqFukrzc6CguMoWrbELJKlxrepOoZ3XkAfNAlShn4OTrEfJPwHyMA25WN6jeANeI2dKdBhAnU86J+5bJxpfjiuSvVU4G5/GmYXkDhcKgwZYpnA+B80PqBOYGP6kRukRUwC+Rj0V/wTYVk2JKj+HePbemnMN9gljIdqTAnX3Ax1ZSpQzsxt3PmlLQbgTgKxMNKNgCgfJ8USzVaZQcVs1jaKAkjGUlroczx1OZ2AKC/feERFIMs2BNJopsEuJAspwmaIITY4VZMEvSVx85l2QiJExxXUNW2HNg7KRGkgDrPddaC/n+TTKfigigwNo9P63HkYH+cgyuOroRWpEzUVWlbKdmiGOBPLM5hTu4aJVanKK9pAq1cWnXctn9MCVnleZC/Ye8swVlYawxtktRXpBeYZRRkYDzq4Dv+YxJrrGTNk/Q20cn7G1uTjcp543yyKnDs9LUzC9ruipOdHT0Mklav+63TD+UU+5lnd0px4I2R+jm6HcQnMjhZWO8pmxu2Md50N+w82B/QsNZh+Y8iTPxi9I1wr1n4ooiAB8/IT+Smj1ShKWW4STneLKYyGx/Y8ryn2SZ2HvSk6ejpe4k4HMEbfmgWCRqXPu3vdTSgeZ7EZNv2M6OujONMcy0+je3XM9uUJmU1eC9BSaMN6kLjfzFCwx4C3unlc6n4L0mDRaVi1YNjGWnY6PdjnWzbx2zFhWMkfFHPk6+yd5Nv8jcnyS52Wc4sZnSUN2fl/l6XrFrZePH9tH5p8czgkvaWCZbrP/CeOMxCNnX2YXGggn5LcMyWgZLTp5dr+ySzs112YFmZBdG0In680Yl9t8WCCDhLitl8o3n0Hy+zJQngV6V/IssL2aDw30sOyZeJnR76fszsvNh2GRt4edPNqbUEYrIxNp6+X3y92XTRuLG5+Xwf19Z8zoR+WdPQtvo8jYtqP4wvxPwWKk8LaOgm0OUmngWTDyEc72VWy7MOqB7E/FwoscReibeEOQR2CFnYa0dKfe0wU/jTLGHZOWQn1hRy4qb0aHjp1EKZaOjIBwRgb7JyIvR2HAfFRf3xmPR55PuHg/Ulj0+QTnn3y+Eqnbt3wIx2dRs+VbuD8sDJCjGekhT/PLjqWGSK+5ehloJ4sUtoxGzSBPu5METf/oF7vN13F/GF9ifs3ll2w+zSd0jLU1PgPzS0ae5yPhe8jTsKTgfiZ6vtn5hkSrMHki35BoGFAE+QBebTM+rIE8c+PGt+H4g9i/1e6gvZOWR4wvhFIbdVfGR0Lxj/J/xndmkGf7aXwqjs9aq4yvRb6TwlzFOKbSjofWvTyz/x49v8vCjJ5duyw9X9/Y0uh5DdfM0+l9saYTaI+k3aPDVfEn5f9Gx/NSRGMX0neQiNBEfwpmvoZRTMF1UCtI0Vqw96GcZJ8VyQENJhkKTBcvKU7RcpyjuhR4hJfYAVctTmGfMJE4N8/OFYD5NFfKi8fQw2hJHy8eA3f7YJFugid3G/bFYKQ5Guc//Zz6rigPPYkPlvN2m3xRnh31RGPKnIpQBWixt8YCdiEmJts5896fidl2rhRGVAHSbQP2TWMBdFPMxXDdKUCrZ+GRlFXxIUnZ+Jmx3lkcCpXG+tbVAljOc1ZVALDVcIBVA6zRBtBt0780MFyzgGDjmAAPJ3ffnoXP/D50NI3GG+Kna0xW0K5sl1xbWC+7PjLMjge31oaIMhJv2qqIWaPynsSKceejl/MO5KATYUZKCFuXPbRvJ26tGUuBk5dz9N/Asdgk2aITJoOzUtJq+rcDjTfaCJYtrDGGreFwvU8Kmw5aSHhUgfnW4SqmdkN4SIb93p3G3KNiH5k1KBFrtRczrpOZ0UVDsJ/PEINV+uZFCzoLNqzf27WgT9Y44wLvp2jiWsM1rW81XF/8VsO13m81XAi00/APCLYa7o3CVsM9g9hquJcWWw33mGOncflehL2quXyRwlIJe/Pi7Jb1J9mrGqfAwpQiK397582wl0HuZrCUMU1sgbLkgjicR4vRkwJ74uebTMylsTdgfZFOz16W0XQe7Sp1B5qEYt5beLcu9qXMTOvb3iknitcVIzlFGgYTGZMtBRr+TBESoTEoqvhnkH1FIDfy+Kyx0qvm9n8UGvUJ8s4KSpU+K4Vn4SNtnqHCNRs8XBJ8q9MnzbEiZhu9U4t272gUwFj+E5HXs2fAdHyIunvaPGOGmMGCbmL/EfHZnknTZ+Tg3O0ZNn3mjS83CsWCiGBuz8iJg4h4vgomjAiPLnWrlGiImExWofdRsL5X2sY+IcFQIKm0/wKSKvsaAupPMKHffc1BdrwKq68m904g0/4UcbxNpHmqYB1IBiWGxYVEjabm7tm/QhS3Z9+azgKJ6OrVvF/sSp7tz9V8GL5EfGSn8owijdj3u6mHu691MHnqf8B/qjwrKruvdRD+tQvR9cHuxoe6yHb+0E8hiXKj0fHyfP8//rUvO3n94fEdM7+9fvny9hU1z//H76TRP719n03++b8=);lineShape=1;strokeColor=default;" vertex="1" parent="1">
          <mxGeometry x="-218.051710654845" y="-2.4630439955999464" width="177.9550309372646" height="131.76310185463672" as="geometry" />
        </mxCell>
        <mxCell id="_9OoPlu7icydqk32kHqf-20" value="" style="shape=stencil(lVrbchs3DP0avXJ4BcHnNP2PzMSpPXXtjOO2yd8XrIYr8XD3yJrxgyzhLIkLgQNwT+nTj8cv3x9O0f94f3v98+Hfp6/vj6f02ynGp5fHh7end/t0Sp9P6dO317eHP95e/375ev7/+5cu2T/99fpPf8LPM847Q/Q//+v8RVMXy//f/H6Wf356meQ1L/LhWD6OX6/l5Vg+O1meH+KxvD3Nz/LVVSIfoqsyA8SpEoA9r82A4qQSjaNrdQak8c0+wDQEHaLzxAcpjh1vAM8Bddh8ANTWJFvKwfk5LFScNALILqQZUFwhW8r2vFlpzdRxWV1WBPhEAM212XGaXPbHgBJcgi3F4ft9QFx0iC4wgO0YAMEVBjAjJgQEcnxKxVhSP07UPkBdXQCenAfxaKXaXCJ+kODanAKqukL8IAmVrtUpAxQXMgJYeItgEqhCo1UszcyxVItrDNBcTQhIxHHVThxsKbtGzFots2YEVLKlmlxUBLBEZj+HZUsslvqOly0JOdNmk7JsqTAriQsBAZlEqwFkBZB6ZQDIGgZITOk6/LoBkqvMrHVE/wYITpnS1cm8gkUXSzMGaHPw2QmhSiuyADu0gQPgiBY7UhwAvMGSJ7VSQ09bPqc6NPSDlRiWWw1QZk9bEUt8BZ0Le44uER10IVfZu0piyQCQjFOj6d6qASidKs2tvUDNJy4ZmyFpxmpmKDMg0RNnVTnOoZECZYhaUIfYnGdWEpdnx0WhsaQVk4DRTArQkYU2QKJFUdtgFhvAPEOSsRE28IMxa0+2ZADgfEFpyWphJPcNICN+9wER81Iog9TtA9Ko+xsgUU83oz+z44JtkpjVADo7Lnhu1oIksY1o3JcXrLpbJjySB8ZXaZ5sCx0TGkcmX2anlVvPb7O+mRIfa6bS7IFEWUmzHDk7wFIae/6SUzmZNHlZ5En6MvmqKE9SRVtStqeV0+SBwXiXWbw1tL8fG9xvJr3HDiAM7vrBBQLN76sCxi3YAVgMFG85DByw0dAPOjgOFvrBAIqjwf9ggNr+2YFpw58X+1RunxxBPvEAypCxRid9KI8BJ/xAZjwwNCE2TCie5/SGXNPfsmct98kr6ntjPy3ep29DfZk9dw/kDYdBf3AzIJqc7gq4BkzilkHvk9dB9y4VJjF9FdvMQodZbWvVLxVPWYKoY/lLRWVjoD6tmw+YKcQCQpCONm7/gvYxykEXyEuGDnRUZoAIxCzxopdcgRzEm15jcgJbMsrMlN4a0CtyGdgKYZDVDdBoD2v0FbiinYPMOpu1EERqVuPsMHExLkRXqKMHuGojGHnqI1Cofcq7s+LKfHaS51vKw00bIN7qztKsQ+JTI+v/oJ5Zw8gSsHWYcB6sJWWzZgP4GWBNL3WcR06d+fhbPR6gnGjjrkuOt06/sYnLUtXyRuQPZwmzWXOjtwoGgIl8SfRepCoWtj7qZeM+ReYlgc/WFINPilM2QFFMrdJGo30EwOldpGx2HWT1gSIbila8PqqFj5nWcZ+4dN9AUcZA/KMjS6E96c5QVGia2Rm7Cp/ebU3iNYAU3T46XqxEgy9ieN9SOuBowABs3NcH7IsOrNMRXYhGpUVRBJmMxS+7cOrXEIoANi/vFx2gQ6PdUb9KEQQwNiYbW97YkqdXKWWposqzRqnLxV+ksdSvtAQBjGD1S7M5vK3qsVFZ2Z53BWBNQL/4gxUyHXMUjzXOACzdZ8X60LkBsVK/HoUVhM7W8nJZY/yGjUbycuGknPMZUcDr0UbNatwFejejjWxk2ekUXP4nGnx9KgtvF5TRH++3exW7B+s/IvFDf10ABopKJ0K6vO/QaH+VMVZ7R81U3nk+ozLL+xpXHe8BIMb7FoBachlBHckvz2edg8dO4zJyOJLPKM+ugfwSQvyeaeGSJs8O5p48tz/uR2nGXvVVeue62tMCmuS61V9KJzBrPCitafe/gHRL3j5c3nb69vT8fH5Z6vp3fDvKvjq/WZU+/wc=);lineShape=1;strokeColor=default;" vertex="1" parent="1">
          <mxGeometry x="189.02952610279362" y="112.43683697221877" width="260.0634515497404" height="67.36450454618239" as="geometry" />
        </mxCell>
        <mxCell id="_9OoPlu7icydqk32kHqf-21" value="" style="shape=stencil(lVvbcls3DPwavXJIguDlOU3/IzNxak9dO+O4t78vWJlH4lJnT/TmC0CRILBYANRJPv14/PL94RT9j/e3198f/n76+v54kl9OMT69PD68Pb3bTyf5fJJP317fHn57e/3z5ev59+9fumT/6Y/Xv/oK/5z1gmupK0X/78cfiovh/7/8epZ/fnqZ5WWSj97FTOXjLC8uVyofZvniSmPydV5fokt0/eJn+aP1P1Yb8sn2n5h8nPeTmmt0P362p2a6vne1TPJZXCD7N/n5vLm5oEy+zOuXRP3B5HWWr8MCPydfzWJ8P7N/VnFF7th/VVfofmqb5YsLhd5vnuWra9R/2mz/5p0n/hBdbihfif3NG+fztuCE7Eddmu3fogtk/eoE1jd/I/YMFn5wYHMgFjCbvTcFpR5hJlL4hOwicQlDELhjU2jkDGJHnC+5FQoqYlaqqMC8wkAErWRLECul6kJFhUwOrWaliAqFmNVwZ/2ED+y4rdCchEWBbClbLORFgRw6pxufUIiz5g07rxSU3HS2DSxbEvIJJbggqODJTRe7abiHMj7ztoJihjIFJfdQCqZAU2AQU5orcNPZKcOAsIBGdp5sqcbhCFcxzbJaTWPHVwpCLs5QPcJNp8EcbivYEQUVGMwYrns4tLjIDt0wtRkUK7kH+3eet2RLKMk9toE0x4Mlq0icr9tk9iWzWyAhavcaQEGGGfYUwPnMWVj+NN+EhGLuyMzawwUYRh458rZCHYRlU5Bx93sKeT6DcSQWD6YAQGZIVdihG2KrgWdlZjWbgILStNs/Yd6SBsrz+hnmAOophivk2axJBxfdUwCoTGmQ3b2bzrPzJWP3LIAyJnZpI6/uKXhQyC4RML5QkU1BnDCFhIldPAUyi+myFDzUvS0gQUH5oaOTeUtGGpWAcYetOR56lcUO7V2aY9poNSWV5t6zQuDOVwvm6XCQgfIAxk0hUSCzDATUwZhsIIfuOW4O0eCdkoszYMQcRytnw0WQt4xErs1gEUrzTDmoFXaQ1c2kxFON+mSAGEozjFtB6ZZcYGxP0e2EVpI5YilmpQdjxGZP8CFKVw1xG1ywS2T/Kpg7wwDx2/J+VC1X8iRoUhkxdZEPZH2rMVRRnvhbx85yj7xiUjuQ90vA0JiPC7UIlOx0d1nui1XaHnlCoMBrharOkBJpPAZFthZprglLKR8He9urtGH/wjtfHolU4pTCCYqzRpkRfEQTxgMV6XimzqxYRWXKY614wNUZ81BEEqW8Q7HHt5VsPyvOatIbm2GdgeWoSvuBiyGVlq86mMKVON0MOIHSpGt2w6Myj1R0YKWdJcVWMudJiulTafWm2NhWWgIo9m118O89y8xYYw5MV88ozqBYR5l5Jc59Jt+1uqA43zuWOuMi9sTxmgrdTEQn4Lca0d+5zwC1PvJIaSDOaLJio/Momu4S3+YAl/RBBzMeCfJWiOylJz/Lx5FQ9tKfIj1jFxsW4Au0c9fT9yy/tf736AHQG0+rpk4/Msizwq/TmwDyLKWt9MnTCmilZwfyDSddXH6ll576w0pfPS03Oj1OKM+8X7Dd4HkyyTh585ReWvkQcD8sXqw8EaTTrBzIS+6MR+UV+AOPRyvfKtJFloGsPISuWKJ0tBS0PydRVt7KbE8rV1mBHnDGUnk7VpYOMW2uVl3KQ16P1Yz1bRAawbViYjQMYxVx7yhDE6PwZlIYIbspNOp0ffg3X3IvylhvKC7z/0jTdRPsGpgfMdxtCeMmFjreazroxabQ6FipLdRNIt9SRp5q4MpaK31iAwqVBk/vWc83nXiz4TJq2xSEDxuWaV3S0W7dUwA8SpUCtikgxQ20tgjeo7v2Ljdvi8M8w1CZgVg/xAwamY+J2opKjRZ3vY8+X0SRgQt7CpA3DTlpW7wikTLopB3iMlxnQ8pAS3fzbxxEyVEEAZGtvB1rKAC+USsFV8MZnL55PhvzmJ5tCTYgX9G4Iw9D44xPS8wMiWcUHPLzOqumZQSfh7Ps9aBhiNNHIiwpbhPJTaFQvDdXgyK6T2nIlsyZUaFS+C66mLXyTxAsRy1oDxrX+MKk0TIt1+XRTqM33d8dLJ9AyWFCmLmg522F5e3EFXru8VVZDsGSluYbZmqscI9jSnqtQK76MmG8PjWrGWR5fdRoEdYf4ggqMJbYn/rc9cSkPyZaHoCwRmfv+i4RxPp/xvGAiHZ8PmgEg4LSCFrfEiX+lggbmH1oyTr92NFpQhtGcbmDyC2E+c14LwseP14MXuWSRN9MQiVT+Ssijwm6P8sg0b/QnsM3in62/+EbSKhsD99YgnzhyXk5b38jShzUI0Hvb1Dp/iGV9zeudP9AbQ3K2CTWY6MsNcrOlzernWtTfwOs7m+MWesLB739DTOVh7ceh2+kAXYP32CD/Q/feEO8HL4hh/U75PHzQicl88nYMljNtDcfMFOGLZ/vyTeUZ/62vCHv8tSeeqd8XuXpfqCcPTxvTffZsy724ffVFv/h/nD3dxYO5O2Hyxckvj09P5+/X3H9f/xChf3p/GUM+fwf);lineShape=1;strokeColor=default;" vertex="1" parent="1">
          <mxGeometry x="449.0673521350009" y="61.900602267164686" width="139.13538586951972" height="86.5970511939745" as="geometry" />
        </mxCell>
        <mxCell id="_9OoPlu7icydqk32kHqf-22" value="" style="shape=stencil(lVhJchsxDHyNriiS4Hp2nH+4ynKsimK5ZGf7fcCoKAvgTEu+aWnMgEADaHDDd2/PD6/bTXBv78fD9+3v3eP784a/bELYvTxvj7t3+bTh+w3fPR2O22/Hw8+Xx9P314eO7J9+HH71J/w52bVGJXWr4P6efonk3P8fvp7w+93LJb5SqQrP1CLAF+Jk8LUBfKL+n/InZIAP5LQ/mRyv42uh0hS+UfAAH6z/PkKDksl7ZRAcMThxbpT0CUIZZ1o2YApRh1RyAAxSoawNoqNUgEGgZpKQKYNDx0aelUHylAMwkChpl1IiBmeITMUYnDO5bOCpOm3QKANmSEx81kxyVMEZWEpBvyGHEYZlg2K5LalsoNg4USzaIFEFURIisHGpjrgtGwgRdDmUQBG4FKZ6FsJXZCD1rqlRPSXApV4u+gw1UUvrBl7KRSeuthG3ZQOpYP0G6SIecMkLmfUbWiQPXGo2SNLWUFSLrYaWiUHa0oQ/P2E5zZZHgkddOEwBqrD+3ejR5ybpHBwjUmu658kcaqDWnG2qDRezvD1ZvAeFI3g/HRj675wNaANjan6+1BE8r/U/jzl9Y3yEQDBhvlm8g88PhkBSk4BAbiqADAnqKAaLj/D5ltD5ij9pyhfOr8VXCjA+sVp8BS1I8LopCj9Rg5B4FosvkM+hWTySCG5omks89N9P/mN+usl/xvgwxfNT9VjJQ//neky4HqcGjfuVm+orQv4b7dHOMnItX8afdC2/n8KHEb0LPNKkPE53MSAZ9MM09SuGA0bGm+FDoArwbXTXM95D4dQnvHHIDdG8piG87nBVJgZ6Q7EU7bIGULTnzAgnkWYgppKEoklU6iijNS0XdNcqDKdGV4tGwFZqyIDtGUTAonWuK16dB9HUaC8QTT2r9ohckjTpxKWKVxVnuSebB4NeJJuHWalTHo9Y222yzkOKIzNr25NppwnTW/YzoydihauKbIDVGDBsSBITs8XyWZavbbFGAgq7EL37nqzzIIRPoERLtof2sqoAA6kvMzW9gyqzXyaYpRSqin5ZoT3C5O6XIboapADR2jEtZw4mbb7McTBn82URVvmCr9b/K8+vxeADiP/H0nARH+xPywZfsT/NEGIwZLnHu0mH+NGTbzUIY1Lf6FGggjI8nZihDp8jytciajImQwgMtZkRV64PP3s9eRUvHz7uQp92+/3pKvXyf3t3Kj+d7l35/h8=);lineShape=1;strokeColor=default;" vertex="1" parent="1">
          <mxGeometry x="-64.21408121460058" y="341.0340019616567" width="225.576040820579" height="28.307361913639852" as="geometry" />
        </mxCell>
        <mxCell id="_9OoPlu7icydqk32kHqf-23" value="" style="shape=stencil(rVrLchw3DPyavbL4BMmz4/yHqyxHqiiSS1YS++8DZoujZWOmx0rltpbRQxLPBshL+vDt/tPXu0v0315fnn+/+/vh8+v9Jf1yifHh6f7u5eFVf13Sx0v68OX55e63l+c/nz5f//3105Acv/54/mt84fsV14MTGajof1z/IuJi/fcvv14Bjw9PK6DUFZBdCxSQwwqIrgoFeFjBO+8JwLuynqGIK+0Y0Lrr65ZKdFIoIPoFkJuLbIXmSl4ByeVOANW1uABSczlSQCgrILlA7NBUJ+sZYnWZnaG4ttohBteZlopLq1qDrskA2dW2AtQd2ZayS2kBbGo7kvdgNy6fXF2tEF0nnqfyed1P4N9XN6sgn9n3N3W8ySdmY4/nDS4S+Vrn8m/ygYRmTVMdN/LpWF66S4LyZD+aSnx/x/5Ls99PZP8a5jmDfCH7z+q/uJ9K7Ju91U8lUZ/K+/wn+Zmbb+TzsXzU76N+qLym3vgO+aBJCM9L5ZMT1CeVV32ivZh8w7zOE1bFuqHhybzZCeR0mj81fa6x26ayDsQ9HFWDjfkmmurE95Pzq25ip7k2YhVOPNcGTP45u06+76cltxrs6Xk9ar9szn0kv4ZW6c5T+bq6stKUQJzHY3XU5FXI901oKdFijEAz31rfpVL9BDyvNNfIfvR0qz5lY0UH8m3dTw2UKCas7TXS/aj/w/e1VhP9aDSu9tJilmhuyBCOfq54lHsKACLdUIjo0UqIGIULZRbbDVCdEBNous2rjpSYZpY/u6trUCpXbizoNWGuXtojJbqahiKssHGifYBML94AeRbZo5oHnK8XmlhSxqLdK2UpSbW0Gq5rqiYr5DJp7Q2gEV8qwRy6z3RwRGxqxRVYh6LJBMpH5+lCqRxQvy6uEYCGCyR4tQPtsrSRNJZmGU99Ew+tm2S9aDJqjZNg7AME+XHf0uA+QHMKAAJfoWFaVUAillYARpwmHtZPdyzM2myyeFAAdIpqmc62ZLrdlmgbtLMCz63j0NDHFRpAw/tXLWn1YeRLAXAGLZ+stVFLV6ifaX7i0DXWNKMEo3IAkOUi3HCCrlG0/2VaEhwiKCBzQLUAHkBQdQsnwd1MHQaAOZ/guGgcmsWDTJ3cAKilBQtKUffmh04ZAYwKD0BHgPAtQZ+mgMLykpiRVzqzNEweCq/TwzXaO1doBsCa6+He5gxUSxVbmGEH5hoVOfeZpSvWh3Nfggb13FubIOAkHqpx75OIw0bpNKZLMgBu6WwPzQGpIoDNdXZCNPOCshfTjOjubClNrvyzh05zEv4/ASrS0CI8zTTkfFqBaNZomJe0xjEaOmgtNLlbDB4xAeBLlU8lFADeqkygMkt3HLENrsHZTF8PPdgM67K8maK2LVX9NKLT4YFuqgFz9XQaMxgTtByRjjOGrQ3VTTz3gb8OMs1rUDCtH5twKf33CQE04XtMlqODYD2KmEPzIdFoatai9VZZD9sm2FKlNWg0ZrBCo2R6tH7QvvZJfg+by7XK3fjjYf/qcQnW+2mHDLeEnft3yjht6Xz6qV1+qGgI1r9GmZeIt+0om22bgak6UyL5eEzUTDvKOoLQZ7d60/ux8X8wd3jq8axZDBnThvZ+rEMO0UyMtCvnE3ds5XiMNtSqhhQrWiZp1DbvfA7G3MXUB6FjxwjyiQ5OopGPs6oejFnzGp3V00sDjyRXOuV7ZuoobUbGgTyWdKEzRI/nlUz16c1lfKSzMVMJx9idjtGR0xd6Jepx3lg8zb8eb1AzvwIOGDCpnvgP6D/2mVwP/BPGbidXrlt3sCV3zlPLHNdu/klTkOC4itPmOtPTthtK1hq2hJ4OPOx1n6dXBvY68UTeTGC4vL2zOZE3161c3l7nejoFs9fFnpbt7OeFxY084wWCb3s897Vo91MYU2k4qtlm+/vOmZE7eZoL7XMDT3O5fc7gJ0Pdl684m/K0G3rrTG7k+XOPivqk8tHGF7voaDvxwq5e2s5zDEq/zfOcePacB+4sM+caGYspz82tmOctgTqoAmAuHYQ2TU2QDoyMSFy0bVdRG6DyJz0V53Ap0un9YIRQwRodtoxWdY36nOjNrgLgojM3Gjc7D/ROetGAV0dFaKYYRBtW6FNv+wB7/R0pbxrdsyFO7C1QN8xAmRljTrsAenUUMd2NJwVs6hCxfIvwkZSyY7MC7dg3cngDqGyIELEki5wZDgjjAHBf6ubQLER7QPceAP7CFe4th5ZOvNXagQPEqJWx5P/yrPcMoD/eXhF/eXh8vD5Cvv1/fHWsf7q+WE4f/wE=);lineShape=1;strokeColor=default;" vertex="1" parent="1">
          <mxGeometry x="-208.88580153800854" y="302.6136482045156" width="158.30923761534586" height="102.35573125240012" as="geometry" />
        </mxCell>
        <mxCell id="_9OoPlu7icydqk32kHqf-24" value="" style="shape=stencil(lVzZkhzHDfyafe2ou1DPsvwfihBlbpgmFRRtS39vwBs1O53oSey87YGculA4Eqh5qT/98fmX3z+9lPTHj+/f/vnpv6+//vj8Uv/2Usrr18+fvr/+0J9e6s8v9affvn3/9I/v3/799de333//xSTtp399+499wp9vuHTkbqCS/nr7Q8tHm///y9/f5L+8fr2Tz0caTl4ey5ejTye/Hsv3IyWU7+Tz5agF5Wcm8y9HcQNIJ4BxVACUI7EV65ZWBJRBAPVoHQGtEMA4siCgk0PTXSoNAaMRwDokI2CSXarpWG5KQnap6q6DItUjk4OrZevBHaCyEfTzJgLYLilgJgRMsku1HXk5AFFuBYzyFKC766YAtuh+dD8CA6guuUVLooDpzkGIttZ59OqmxHRJ73RHANPWuq5OmuhSS0dyI1SiGmojkltDZSOUi20t5KTt39kByMG1tifwUUC/ArBFq2q0JwFoNQLA3P++NwIcMJxdGgHA+YfBzmHuz7sB0tEqBcwzQPW3EfVWwDqvQS/tYAcnR4IRyvbajwDlrK1FxyQeSAH1bGbUJ1Vyp5ugy8pC3bQCwC7lxu+DAmCEdAg7aTnG+cYJtfYmf7Zjc9/AR/JwzoObDDnWWb5TU98WRjKdX+e1j/SmqHuC14FV2v74XZ4pUVcdO8+HW7yuJvfsDMu2+9fyfZ//7YDp/vTp5TP7/LWdzJZP9OKPgt4/HZV8/hhosNM2+ZfyM2HQlnaoey3ftnrdyRMnOAUtXaLnKwXPK1FbLQNDEbWLRB9E9b+hPPn8ldHbpKOT/VkX58V8/qoYcAbybavjnTwxiUuNuPt8Jj8wLArkp9cHKi8YgYTy46n1atDl9IHcL5XveF860WeVn3hfWFyq8pCBqKNneV1KmGryKNMGOB/YpAbIL0Bzz8ZXgC5v7QTjEQBSU/VJk48AYaxmJOzSq1LAJbB0nC3aeeH3YOQRACKJ3qIRIFYZiTIQCgDHoaabHpwCzpZ06qJJ+GRX7Xw156C6Z4DzXZBMnY0C0nkNwmNGA5yVT9YxghHOa1CDyWiOC0DnF1S2/7oBJk2v9d8QQelHLLatc0/gBlg001QA2KQ7q/AIAV7QhmCAsbOHO0DifgTmZBvHFqFX+HyDdExGvajnHADo/MqlY54vhI6ZyRrU93c4CJ6mqTavs35rOFDJtkrd9+UG4OGRJJceyCFk0XNivCyqrgzQkQ3SkElYxFbQ3iuAbetwLs6sAFGNMTHrUgBLWkZH06cAZgVGxSxBGk3TRsawQQHsAmkcXxyABQ6aKIBHUUBlmUXHTFCC1Khi6qXqKGyEspnKOwALrjRZWx0BheySZoMC51DolBSQMgJ6kJA7ALuiCsD7kHcE9ZAYmQhgIaUCcNGJWj4jdxYCaNI/MUmaa4cfDwEQO0g0QgMaYtAChgEg2GgRo4WAQoMND1DDw+Kf5tyoRlhMvQ0AMVw9Gh8BeL/Bs0lP46lZYGUeo/HOB2dmgZgZA5wPrnOm3bT17LLULBS+SwumlKIRsAizOA8ujtaWiNSCoE/HjIzAeQ1tcOUT9A/GW3MAEuct4i496UzPQTYRd0c6U2N8VZRkGcf7rt+RzpkTtg045BUStudtrUK9qAGAdNaTfg4wOJfvp1R3mfKjI9TtxD7osmqhpaomWK1WwODnAKF05ZVYY5GrA/BFi1tD4KchblUAdSiOqKu8dOuZbTsHPiUPoNUzwfBHASxDMUBCwOQnLQ0B1D/owTltpdGMoAeKARBrxFMCBjFeNMQa8bb6KxocnAcEqtFg0aHydXfjAvUGXjy+QEAsx1d0ujUERgCo6NjMLLeGwJAtfw4BwKlGYIyfB8CUbm0sHzUCk+Zxtq1wDkLpnyYYkdUwXsLehxS5XYgqNRIIdmn4WOMpD2SdCYHVAEq38djbmRmNyBjh6v20xnw0WJfNi99FlawByuIl6EwQnin6mG9ts/DB5NVS8iDQPftpi+75lKAHRfMHRkgZ4LxLlqHwxA8ukOVAAeA8wuA1snbLqe7zuCBj95likGUBeX+rkjwc4bwGy3bZSTsSwfJpnouC9Ta2n6nGdIUjoVylV425aG3f1BvIzcSbDVygK7zEYXRRR4BwAARYUmhK010HoQKY1egFrYYCaAdBdfxS5VPqji6q1C4Z9eiIQUbQGrnppiTkxhl96gCstccI2rPyGblJlM8oYAdgid9w/X0KYKWm6QqvClhkW6drIjYam5z09DT24M0ZjmpRwCIjWDkB7oPQQFeqo4AXr3AMVy5L1PJZ0QVKU5lu60quXFYpuWktFzCltrOia0DDTs41eFGxb825ASYvHw9MB6y2ykt+cIGsxs2rkBCRvRfFHwGgUcz+wmuKeA5BJdUD6ublPggQHv4s56et0hSMAOY+00xxTQzWzYvyKUE0Y1V5dnCCFY7BjYCvmRvJHJTxgWRuUSsCEoNCObLlGCx7PsFbEaDrzTo8gpaQ8whl8EaBheVm61JhB7cwHciFOhQFANk/qWk1eVgzDeDWQiNTeIHdLyDq4wEKO0dNNhBm5L3FD9UuPSPvOscCedeZFsi7zrdA3nXWBfKucy+Qd52BPOf2nYeZ+hzf2Zhpic93TuYnOzMzpbmvOj8ZhXbVWcrKSledq8xjWmesmw/rUrgReHfrJfPpCx1spmZao/KK+sxS+d5RvtDcqFdvf1jG2f0TNGpALTPCTnLWo6TyoG+dJ7QLOdiAmFs4/xGxZsD8hZUk7Lzh+bXj8u2pQEAUgsKFJUMIfLNE9BGYxMIfq3mSrYQcQXVlnoBZhDeANXiQIJg5VuEcgbjHaryF2AAQDvE3AL5DpAXkvyOoInbUvxeqnHpxzxIUwJoULx5JNV7F9M+wAoB/6BUA/FOyAOAfqzVeXvDP4dpuPbgG+Ad3bWvXNSC5zgRuVetyjzd5L3T1RfpGX0DYw0d3cCxjuXhayZmUi8ebjfJNF89DOdlpD1D7UyP4J65th/OPAPiYuVGeo1a0rXYO/F0vPshulHp5r/fd6xIDZPRA9iaWnbRz6fbElWjrxYNszrRfPPnmHqiMi0e0LIO/eLbO6dSLh/GVBjJ5ONvKy54Xj/sLDR18Ph5wzu7bCQp1J/7bDwp91Oe/XYHL+29v4D2ZyXVj8SJVQkbE5Ml6/bvqQl+wJGflCzXaCckK+y4GYiAd09x4C+qVPKvJ+flkmhr59fJHSn4/M+0s8OeVaQTm9YF/m8ez3xYSy+sP719N8tvrly9v32xy/3/8KhP909vXoNSf/wc=);lineShape=1;strokeColor=default;" vertex="1" parent="1">
          <mxGeometry x="204.23813805027157" y="279.5941104010849" width="367.3543738138642" height="136.58293923553083" as="geometry" />
        </mxCell>
        <mxCell id="_9OoPlu7icydqk32kHqf-25" value="" style="shape=stencil(lVfZctswDPwavWJAgudzmv5HZuLUmrp2xnGvvy9UDRWRlDbOmywvSCywODTIw9vx6fUwWH67XS/fD7/H59txkC+DteP5eLiON30a5HGQh5fL9fDtevl5fp5/vz5NyOnpx+XXdMKf2S5nim6ysvx3fmOJ4/8XX2f8aTyv8ZZCqvCRXN7HJ0fTfyu8cWTCvkE0FGsD9SjZfQOfydUeiZBJ+wYuE9eUnScx+wYSydcu+UgZBMnmQnEJEpOAKE1BrzkkDQPgYNTjmkNO5MENGvVkagMNA8iDEfKuNXCAtDEUfGuAOOSOQqYMPAqUQocHlF1xd4VP4HxLrotQ4H08U+YWb4GMmEyDTxSBP0ycW7wF8WRKDd8IC8eSdHjnYDxti0eVHMrtKzwL1AN3eKRQFZxpDSwgMEm6M/AeFk3MrQGS6GZZOsBZDTi2BhmISF3irmoEkdY0Sydr1ClUp31dAh3FctzS4VmlCwrHlyzdeYFsUI7gfLPBWECauZTVnTlY2K2TDFLwWXwobXM1DKCIhFJ9gY4bBgS09E3dqnWgORAhnai+vsEt82S7V0jJ6DKULdwTfGgLQdOYQbcLibjmoGFwSKahdJ9iEMoqs7252FLqywVkQe0noVh3F23I6HzXzg+GzSgFcqHBo3GQUllq3vEGVE3mtnfhKtZNsJkHH+Bdkdid/gSyueULFDRNu9Z/D/I17T+t/wmdn8u0XukB7UPc1b0OLLRaf3YV/xCvD+97/8t4Os2fDev/2+8EfTV/Y8jjPw==);lineShape=1;strokeColor=default;" vertex="1" parent="1">
          <mxGeometry x="-139.60619594762898" y="34.635288822322536" width="6.574859858593527" height="33.94805914187782" as="geometry" />
        </mxCell>
        <mxCell id="_9OoPlu7icydqk32kHqf-26" value="" style="shape=stencil(rZZLctswDIZPoy2GAEgCXKfpPTITp9bUtTOO+7p9oVHomoiMbrqTZXzC6wfIiR/e9k+vu4nS2+V8+rr7OT9f9hN/mojm4353ni/2NPHjxA8vp/Puy/n0/fi8/n59WiyXp2+nH8sXfq0cMWRdKEq/398ArS8+r/aH+XhjnwUwD/YoQOU+0BRSHQARyBHQQEZACTCFgJYREEgchsQ4AA1BIqAA0wgUEAwABGwjoFDyfUAr8FhWy6pFAAI1D7zXbROQCqX6kFKQgxBUB2TQdh+oFvEopZZAgsZVBR37oAVaEJJ5IBkBhBR4EPSdtjLkQN6SuxCuAHV1bQMNcBSfJMhBHzQDjlqyrEoQkpoH9h44mgeG+iGHEsnbZlp8lVKQg0mNXR8SlCAkTKn36abVHIjJXDjAxEQUALWX/UauOfJg+h6TsDpI0GrVDyE1qBFA0MaQbuqwrSZz4WLSeKoZ1O2NuHWmHXG7j/qu+j8AJ2hjDpnipH3OFB8Quevgal8Ag5TNu7OPj7jUx/HaNe0Z3bF3ssACOVBq8jsJsTdxe3j8Ca2Qg2lmPwcWTbSE/XahcAXb5I/m2NfZduy2Pcfmpu5v295OqeLsI+0sn6vOPjrJl+o0l26khX9fj+zh793qZT4c1qvZ7f/+Lmav1nscP/4B);lineShape=1;strokeColor=default;" vertex="1" parent="1">
          <mxGeometry x="-127.21276736542472" y="76.78946643687186" width="5.320341989463486" height="5.453307780335763" as="geometry" />
        </mxCell>
        <mxCell id="_9OoPlu7icydqk32kHqf-27" value="" style="shape=stencil(lVjbUhsxDP2avGpsyfLlmdL/YIZQMqWECfT299U2dVjLyUl522x01rKOjix5Izevj3cv2w2H17fD/uv25+7+7XEjnzbMu+fH7WH3Zk8bud3IzcP+sP1y2H9/vj/+frlbLJenb/sfyxd+HXGxkqYFxeH38U2gGP6++Hy0f9o9r+xZZ/sA7IVJsrPnDOwbpTjYR0p62T5lqjLYC9V02V4T8WhfKNXL9jmShtEfphIBoFKuI6D1kJ0FlERxjBBXisClYn+3ccsV7sEAhQdAatQKAKgnzcLQAMu5UBsBRSgDmrX273VANd6ASxpIRkCLlBtIDEu8cdPNUgUAJHmXmuUicInte47pgMVgYsvlI0vESDKqoVVisIJSmzatgIfYxXKyTz3fz9qf9rdmgQELlMbvVwsailDw5aVqj/KlkP4rDytAAnJji3j2gIgqDFMbOaiJCnBJC0nxABEgt0BZPCCCVK1WlCaXIqB5SX0XVqEGotQKVfUrBASwGjMBBGTGkvkToAAeDFDHsmfEMYjSSo3rZAIIW6K4JTLUpwG4eEBDK1i6uhUsW0AyGRGqHpDB+bMIPk0AxJyeWQEdJ1YiSvQApCADhCmsGYVVqGQPiGjTM0C7RC66NNZuyz4oiNRPmxUgIcmZA7OokSDyJGrTKAqrpQZPAERc7cm8cgmdJkt6TxrVKwKqngfUTp7XKDrXz5SBTIx23aZdn3rGi6XMAUqX+cViWT1AEXO59zprjV4BTCsggJ0QedKoopYv+D7aAKgc2ylXXfZVqNEklCZABSuITSLOpQYrmTXaboUWcGNMMqaSdTOItzhtwcpCAnt+b/1PAIXTg/WUOhJt1KPzweYrl90GSKjNrdMKiSriTXsVWkU1gEK2jFiuGJuTQHBZfA0ofC1ZwzSfCAII8ciDzRMBMG0OuHJvgymjPUxjHzeYGrZpR9wy6aK2Mk+TqEKXbMhze7DuuiCA+MGywCFOiheowtZEoo9RgrP9fNeQYOLNdxnSx6Hz9sUXeptB0bBUegv8bl/Q4ZZ9fRE4mhif1fsTUIOrvmNgeHSavYizZ+yPs49w8Jn9iXDuiepPtYD5muIZei37T74CHEnmfAiwr/3o3dl1e3t4v6h72D09He/51v/7iz17dbwUlNs/);lineShape=1;strokeColor=default;" vertex="1" parent="1">
          <mxGeometry x="513.1454718018581" y="95.32891329657127" width="19.710489072697783" height="33.42294672576145" as="geometry" />
        </mxCell>
        <mxCell id="_9OoPlu7icydqk32kHqf-28" value="" style="shape=stencil(lZbNbtswEISfRtfBcpe/5zR9jwCxa6GuHThOk7x9yApCtZS8gW+0rE/kzg6HHOTh9fD0shuYXq+X8+/d+/h8PQzyY2AeT4fdZbzW0SCPgzzsz5fdr8v57fQ8/X55am+20Z/z3/aFj4lzRCBqGNPn9CgxUvz35OdEHMfTgigJxSkgO/hkAA45a6CADSAzAiugBIi/DSRCFg0UULgNhAzSMyx02CR8gPd6igxnAOLhta5FEIw1cQRFLVNEZgNw4KI7lxEtgBA0EAuyMwAP0kVHB7GKdnNjZyB4W1aHoDvnaw2G+4Ig6SXVzmTDGzEiyj1AFTHftaTqZir3FF0ihFeyGn2obk7aGq1xRqeb/TXQrCEG4HsvNfMZQA4oYWVvQ6Xk+9j4ZgNF7lX6do8WhG6KMht4265pVnEZNEbVnOekW0aZUTVzHxstLC2AIF3nahxbsbEJGDO4dQqEWeltlZC0qiEiGG0gOP2+j2bKrA4gqe9bIQPR6+cEMo6TWjDp88dV52UDKIgdQIiWj9wqY1Dsw4S1K2puGgsKdf9rn9oboe41lu77ztrM9Ujnbv3R6NjGpaEqxGqGOvh/59iPx+N0ZVn+399R6qPpfiOPXw==);lineShape=1;strokeColor=default;" vertex="1" parent="1">
          <mxGeometry x="551.5869154543757" y="126.77907354676904" width="2.015932417119984" height="2.9424705355393144" as="geometry" />
        </mxCell>
        <mxCell id="_9OoPlu7icydqk32kHqf-29" value="" style="shape=stencil(lVjbUlsxDPyavGpsy9dn2v4HM4SSKSVMoLe/756mPhzLyTK8hbCKLWlXF+/05uXh9nm/C+7l9XT8tv91uHt92OmnXQiHp4f96fCKTzv9vNOb++Np//V0/PF0d/77+XZBLp++H38uv/D7bKcqWher4P6cv3ES9d8XX874x8PTFl8lpgEfRNN1fAyS44BP4ivBZwltwFfJjuCbuPH3fZDarhskL7GMBkUa8Tip1DB6rBIyMUj2BPhQiM8pS9XBQNczrxk4NxpUqSQLKYgbfYjIO4lSTBLGsMYikeRBU7/AmmcnjfgQ8mSAsBIfQEznR4MomSQORPDOGgTi9GLgrQ/BkyuBSyZKVTxTT5QyXgl8L8QA9NaRS8hMIXnIYL+zBszpopImg0qcrl6auVKRTE6oVdxIb2jQER9akGbygKJBFNeyjVJ2/IRqJZqTOEI+75yVXHHiiUVr0kZulES50YqU8U6l9bpw2UBtImoUTyRXi4QxEfimFsKNYgXRvARisERxPKFBciQREFgayz1yGUmt1GyrMXLJGgr6zf9ivRo0aqCSR583ub98ghXQknrGpe7gBs/ag5NcLD4Svbmula3DkeENsxHRQvFhwivFl7HQg+mNlWFJ1eIL6yQ2YcAnUi20V9wtnvx+tN0Z+My6s5Rm8UzHeeJPpfnK0iZ8IgU720IEPOvMuXu34Y8yDdsyBDzry6gREz9ZFdLOlq2+CH/QAaffb0Rf3nbM5T5Ev852p8VfEh/Xo7fBs/lxmnOQLxYf4JvFR4pPavGe3B8lf9JjpfUwTHpn8cEkmi2e6fGjeBjMAnZEYDorPtPW/Tb1bdoeK9HZT20v0Hm8BCv6CtIREtVgO3GFrgmrlynNTBPap9vL4wd8mOYVxjvMK2kkxjIRkcS1aTTFzBVJpcOV6igdDCSRTUTN5gGDYyZO12wzjV2MrQiYls0ihV0sksRh5tKx/GIHYAstqOHGsIKOSk7Ialf4yAW9bHLzCUyhmBuL9YFRY+mZ0/bInPbTZIqwsiuhCHhzgu9Lw2Uf5t2u8Q24TXtRpgst/u3GwhoD3e1wgTwaYO1nBgiijvRGaWNrDvJaxxNC4wbFlpllfiZhjdFeyVca1uineXytI9deqLLpt1TSuj5IrTWg6+MyPvTSvqats/0y80pn8tuLGRvvgLcRolIA3tBobS7XHl6axQe2QBU7X7hO9Gv46A0+899vweBZzQ7V7gdYSBi+2XnB9U53Ob/rm88Gz3Tv5/i8gzfV1PUEXuNbsfEJ7I3poy+67+Lx4e35+P7w+Hh+fd7+3z4346vzU7V+/gs=);lineShape=1;strokeColor=default;" vertex="1" parent="1">
          <mxGeometry x="-155.49680844818067" y="326.5970317325557" width="16.639507184951754" height="46.75728565622808" as="geometry" />
        </mxCell>
        <mxCell id="_9OoPlu7icydqk32kHqf-30" value="" style="shape=stencil(lZbdUttADIWfxrdnpNX+XlN4D2YIjYc0YUKg5e3R1mOIlkSd3vnv88pHR8c7yc3L9v55MwV6OR0PT5vf88NpO8mPKYR5v90c55MeTXI7yc3j4bj5eTy87h+W8+f7/mQ/+nV462/4s3CNUEKnAr0vV2JCan+v3C3Abt6fAxmlGCAJWnWAhsoGyIKaXSCJAUoEeyUltGyAqis4QG2IFmiMFh1AVbIltYLE14FCyFYlJgLRdSITJNolGtiRKRGq7ZzqQE4jooBtI2oFO4BUkAVK84EMsrrmBhIHKGMjUkV1VIphXCGqW5zO6W1pFggITklaQK4G0CKzs0KuaMkCGSE53lARrZlU6OB8dG+TXUFbGfyBoGFG6V8zykPjCLFcB87c/OkNWoPh8hI6MBbQofJa3UdysGtbX3FZJh36YUg1GJySeqzYkr6i53KrBeXbjFYnBjQa6wBofHozmhCHoVZZHTN1QP4HkDima09Dx0whrm7+BBKyE0yc1rQ+i43ofHRBtW4tDHHaEMYwzrym7cXn1ar2AxKvKXLteWuLSODg1ZNsYgRfUc0TWz831xQcR4GYkZweBxmBBHEmRz0x/Bm0AY6garpBofHfpgdfO47HebdbNizn98cdil5adjdy+wE=);lineShape=1;strokeColor=default;" vertex="1" parent="1">
          <mxGeometry x="-131.53680841854316" y="374.8554605684617" width="2.51462274023811" height="2.5223367616044925" as="geometry" />
        </mxCell>
        <mxCell id="_9OoPlu7icydqk32kHqf-31" value="" style="shape=stencil(lVjZbhsxDPwavxIidT+n6X8EiFMbdePAcXr8fakacleUd4y8rdczkkgOD+3GP7zvnt62G3Hv59Px+/bX/vm82/gvG5H962572p/1aeMfN/7h5XjafjsdP16fL7/fnhqyPf04/mwr/L7wvCOujSXuz+WNUIn/Xny94A/71wVeCgkPeE+FAT5RCAM+UigAr8uVAV8oJ4B3FPOA50Be1gmcKMpoMMMdWCi40WJHOa8TCqXR4uBI3Do+TvhCFRzIW4ujmoRcRDJGOElf4bbB3borvpADeCEez589eSAJTymO+ArxmdyouKIeA/7UgOWRUB1VZICjMlpcY1f5bQuY4iiJmqFLQyA3EQKIWcyUvT0Sgx0ykx/zpjIx8FIRqqMsSupCuUnQ9eJ4JF3CgR1qojwanUtf4jbhqrMrQXMPGN0IbAnuzg5pJKhVoBwpQZwlMCaEsbxkVReItBKMWpWQEKF2E5cEFAdNrzgRkA2V0rRDxTuUYL0kKA61J+SCkEDbYedsBmmokb7bFmIJMUBCjpZQQSdRgqkCWvhQoVeCFZNWSqwN0wwbASeE6Q3tSMjo0kvv0misb57cmkCtbCk3Ee5kkNU392K4eqRJfaihNKMNQfUN1KeENOVoxjtY8d3NUZmOlHAGxYmABrEm72K9xJhQJ7fGOxn3OULu1f3aURyOtFjxlQAjXTwF0+QKrDNNamMRqDpugR20URuj1SqUD20UMNOJ+g0PGzLmw6IYrs0zkuyZIpqJeZo2fM/atZHVjGQZFmOeZg29doAwuF7lFmUMjbhTc0i5x3EFb8pkYtik2Q6IMcIe7XsNvY70Gd6qsj2/1wICEoGdTWap+NYT+npXgvoMVGEutkO3exC6uImNWYLDnmpoungil6qP4piZ6gMwrqpDYjV4h9afZhicZHoJdNP6IAKK997gGfhH8dGeB0W4XUrF4NGVRPHF+rNgvGlpjO9IziqOYQq38xSDh2VxTgE4cio+icGj5qT4YPGo5X/2Q8p9vD78/2rzsj8cLh99lv/brzz66vKFyD/+BQ==);lineShape=1;strokeColor=default;" vertex="1" parent="1">
          <mxGeometry x="431.72603869464865" y="319.4060104094083" width="57.11870738346897" height="40.759528563183494" as="geometry" />
        </mxCell>
        <mxCell id="_9OoPlu7icydqk32kHqf-32" value="" style="shape=stencil(rVddb9swDPw1fiUkURKp5677HwWaLsaypEjTffz70fDcWvRy6YC9OfGdJZJ3pDTw3cv+4Xk3pPByOZ++7n6Mj5f9wJ+GlMbjfnceL/Y08P3Ad0+n8+7L+fR6fJx/Pz9MyOnp2+n79IWfM681Ep1YKfya/4lU5z8+z/jDeFzjI2nr8EIpXsdr2Hw/U6nXCbVQko6QMgVAKJFi6AicqeXrBNbl9ULIlWIDBIuBO0KpJGCFKSf9ChZVDYBQSEqf1QTLkJiKIygVUAcra+jroEwC0hrVr6BKGWQpWuFqR2hKVQAhe2mYGCPIUtwEbQS4pUgSPEEAwT7HHt+QWJe3b+IOgQIIwbQvfgFFdaayCaAC5QW/IcMnEHCgmHzNFNTMohOPzwnhNXo8yk/y5m8C482U1OMZ5LNSLR6fChKEz48sKr+mOK8ggQkyTfNmR4JMkBdTrVMKQp58WTyhoC0VCuwJyAW2pdC3O1MdI+enpUhrX6KgA6XkCQ3EIIvNP2rMQrwJAQ4Rihs8Ggmmi42RsXF4E3CA+OC+r0ur+S/44uO1aYCMI36g2bhBY98qHHtJ2EBjsMCkob612MgsaBiwHzc2lP+Y9e8EWVrnauxnPMVLb5xscx0Uja259e3aji6ofdlZR/u0JoZZquK9bGlQkCWRRcZvWYK6UBOGG4FQp4Z3EyHAFGklzQ6fQcCTLP33Eyiy2vxNDo+6qZ1/i3o80ERjb/wb+E0+b+zHTqLyD/GazaOPF+VzOpKV4eP1ej9grfSATBY2nSgSg0YxLSAODy8sNy849vB+O3oaD4f5crV+729T9td8E+P73w==);lineShape=1;strokeColor=default;" vertex="1" parent="1">
          <mxGeometry x="453.8529198795022" y="334.6378786997491" width="7.513160315381356" height="41.54503445818614" as="geometry" />
        </mxCell>
        <mxCell id="_9OoPlu7icydqk32kHqf-33" value="" style="shape=stencil(lZbLbtswEEW/RtuL4Qyf6zT9jwCxa6GuHThOk/x9yApCNZQ8gXc0zSPO4/KSgzy8Hp5edgPT6/Vy/r17H5+vh0F+DMzj6bC7jNc6GuRxkIf9+bL7dTm/nZ6n3y9PbWUb/Tn/bV/4mDhHBKKGMX1OU4mR4r+ZnxNxHE8LoiQUp4Ds4JMBOOSsgQI2gMwIrIASIP42kAhZNFBA4TYQMkjvsKjDJuEDvNdbZDgDEA+v61oEwYiJIyjqMkVkNgAHLrpzGdECCEEDsSA7A/AgnXR0ECtpNzd2BoK3y+oQdOd8zcFQXxAkHVLtTDa0ESOi3APUIua7QqpqpnJP0iVCeFVWow9VzUlLozXO6HSTvwaaNMQAfK+lJj4DyAElrORtVCn53ja+OUCR+yp9e0bLyjfKLOBtuaa5ikujMbLmPDvd0sqMrJl722hmaQEE6TpX7diyjU3A2MGtXSDMld6uEpJuXIgIRhsITq/30XSZ1QUkdb1lMhAdPyeQcZ3UhEnfP64qLxtAQewAQrR05FYeg2JfJqxVUX3TCCjU8691ah+EetZYuu876zDXK527+KPRsY1HQ60Qqx3q4P+bYz8ej9OTZfl//0apU9P7Rh6/AA==);lineShape=1;strokeColor=default;" vertex="1" parent="1">
          <mxGeometry x="499.586901372591" y="366.7790608314308" width="2.0159458670418644" height="2.942500165788033" as="geometry" />
        </mxCell>
        <mxCell id="_9OoPlu7icydqk32kHqf-35" value="Text" style="text;html=1;align=center;verticalAlign=middle;whiteSpace=wrap;rounded=0;fontSize=16;" vertex="1" parent="1">
          <mxGeometry x="113" y="1100" width="60" height="30" as="geometry" />
        </mxCell>
        <mxCell id="_9OoPlu7icydqk32kHqf-36" value="Text" style="text;html=1;align=center;verticalAlign=middle;whiteSpace=wrap;rounded=0;fontSize=16;" vertex="1" parent="1">
          <mxGeometry x="117" y="1151" width="60" height="30" as="geometry" />
        </mxCell>
        <mxCell id="_9OoPlu7icydqk32kHqf-37" value="Text" style="text;html=1;align=center;verticalAlign=middle;whiteSpace=wrap;rounded=0;fontSize=16;" vertex="1" parent="1">
          <mxGeometry x="117.84" y="1198" width="60" height="30" as="geometry" />
        </mxCell>
        <mxCell id="_9OoPlu7icydqk32kHqf-40" value="返回主界面" style="rounded=1;whiteSpace=wrap;html=1;" vertex="1" parent="1">
          <mxGeometry x="860" y="1479" width="120" height="60" as="geometry" />
        </mxCell>
        <mxCell id="_9OoPlu7icydqk32kHqf-41" value="&lt;span style=&quot;font-size: 12px;&quot;&gt;火箭的参数&lt;/span&gt;" style="text;html=1;align=center;verticalAlign=middle;whiteSpace=wrap;rounded=0;fontSize=16;" vertex="1" parent="1">
          <mxGeometry x="144.28" y="1052" width="79" height="30" as="geometry" />
        </mxCell>
      </root>
    </mxGraphModel>
  </diagram>
</mxfile>
